<svg xmlns="http://www.w3.org/2000/svg" viewBox="0 0 240 240" role="img" aria-label="JUNIOR TOUR SATURDAY AM">
  <defs>
    <!-- Left-to-right over the top (sweep 1) and under the bottom (sweep 0),
         so both bands of lockup text sit upright. -->
    <path id="arcTop" d="M28,120 A92,92 0 0 1 212,120" fill="none"/>
    <path id="arcBottom" d="M34,120 A86,86 0 0 0 206,120" fill="none"/>
    <radialGradient id="glow" cx="50%" cy="38%" r="62%">
      <stop offset="0%" stop-color="#2a2a2a"/>
      <stop offset="100%" stop-color="#0b0b0b"/>
    </radialGradient>
  </defs>

  <circle cx="120" cy="120" r="118" fill="url(#glow)"/>
  <circle cx="120" cy="120" r="115" fill="none" stroke="#3aa0e0" stroke-width="5"/>
  <circle cx="120" cy="120" r="76" fill="none" stroke="#ffffff" stroke-width="1.5" opacity=".22"/>

  
    <path d="M120 74l12 26 28 4-20 20 5 28-25-14-25 14 5-28-20-20 28-4z" fill="#3aa0e0"/>
    <path d="M96 156h48" stroke="#ffffff" stroke-width="6" stroke-linecap="round" opacity=".5"/>

  <g font-family="'Oswald','Arial Narrow',Arial,sans-serif" font-weight="600" fill="#ffffff">
    <text font-size="19" letter-spacing="4" text-anchor="middle">
      <textPath href="#arcTop" startOffset="50%">JUNIOR TOUR</textPath>
    </text>
    <text font-size="13" letter-spacing="3" text-anchor="middle" opacity=".7">
      <textPath href="#arcBottom" startOffset="50%">SATURDAY AM</textPath>
    </text>
  </g>

  <g fill="#3aa0e0">
    <path d="M22 120l7-7 7 7-7 7z"/>
    <path d="M204 120l7-7 7 7-7 7z"/>
  </g>
</svg>
